<?xml version="1.0" encoding="UTF-8" standalone="no"?>
<svg
   xmlns:dc="http://purl.org/dc/elements/1.1/"
   xmlns:cc="http://creativecommons.org/ns#"
   xmlns:rdf="http://www.w3.org/1999/02/22-rdf-syntax-ns#"
   xmlns:svg="http://www.w3.org/2000/svg"
   xmlns="http://www.w3.org/2000/svg"
   xmlns:sodipodi="http://sodipodi.sourceforge.net/DTD/sodipodi-0.dtd"
   xmlns:inkscape="http://www.inkscape.org/namespaces/inkscape"
   width="157mm"
   height="93mm"
   viewBox="0 0 15700 9300"
   version="1.1"
   stroke-width="28.222"
   stroke-linejoin="round"
   xml:space="preserve"
   id="svg2"
   inkscape:version="0.91 r13725"
   sodipodi:docname="graph_ppv.svg"
   inkscape:export-filename="/home/niki/Midgard/Experimentos Gorka/2017 - Gorka - Fondecyt/Experimentos/Experimento 1/R_conditions_creation/materials/Presentation format/New-paradigm/graphs/png/graph_ppv.png"
   inkscape:export-xdpi="89.809998"
   inkscape:export-ydpi="89.809998"><metadata
     id="metadata252"><rdf:RDF><cc:Work
         rdf:about=""><dc:format>image/svg+xml</dc:format><dc:type
           rdf:resource="http://purl.org/dc/dcmitype/StillImage" /><dc:title></dc:title></cc:Work></rdf:RDF></metadata><defs
     id="defs250" /><sodipodi:namedview
     pagecolor="#ffffff"
     bordercolor="#666666"
     borderopacity="1"
     objecttolerance="10"
     gridtolerance="10"
     guidetolerance="10"
     inkscape:pageopacity="0"
     inkscape:pageshadow="2"
     inkscape:window-width="2495"
     inkscape:window-height="1416"
     id="namedview248"
     showgrid="false"
     inkscape:zoom="2.1427318"
     inkscape:cx="320.06842"
     inkscape:cy="122.38155"
     inkscape:window-x="65"
     inkscape:window-y="24"
     inkscape:window-maximized="1"
     inkscape:current-layer="svg2" /><path
     fill="rgb(255,255,255)"
     stroke="none"
     d="M 7863,9290 L 0,9290 0,0 15725,0 15725,9290 7863,9290 Z"
     id="path4" /><path
     fill="none"
     stroke="rgb(179,179,179)"
     stroke-linejoin="round"
     d="M 8534,8039 L 1862,8039 1862,382 15206,382 15206,8039 8534,8039 Z"
     id="path6" /><path
     fill="none"
     stroke="rgb(179,179,179)"
     stroke-linejoin="round"
     d="M 15206,8037 L 1862,8037"
     id="path8" /><path
     fill="none"
     stroke="rgb(179,179,179)"
     stroke-linejoin="round"
     d="M 15206,6762 L 1862,6762"
     id="path10" /><path
     fill="none"
     stroke="rgb(179,179,179)"
     stroke-linejoin="round"
     d="M 15206,5485 L 1862,5485"
     id="path12" /><path
     fill="none"
     stroke="rgb(179,179,179)"
     stroke-linejoin="round"
     d="M 15206,4209 L 1862,4209"
     id="path14" /><path
     fill="none"
     stroke="rgb(179,179,179)"
     stroke-linejoin="round"
     d="M 15206,2932 L 1862,2932"
     id="path16" /><path
     fill="none"
     stroke="rgb(179,179,179)"
     stroke-linejoin="round"
     d="M 15206,1657 L 1862,1657"
     id="path18" /><path
     fill="none"
     stroke="rgb(179,179,179)"
     stroke-linejoin="round"
     d="M 15206,380 L 1862,380"
     id="path20" /><path
     fill="none"
     stroke="rgb(179,179,179)"
     stroke-linejoin="round"
     d="M 1862,8187 L 1862,8037"
     id="path22" /><path
     fill="none"
     stroke="rgb(179,179,179)"
     stroke-linejoin="round"
     d="M 1862,8187 L 1862,8037"
     id="path24" /><path
     fill="none"
     stroke="rgb(179,179,179)"
     stroke-linejoin="round"
     d="M 5198,8187 L 5198,8037"
     id="path26" /><path
     fill="none"
     stroke="rgb(179,179,179)"
     stroke-linejoin="round"
     d="M 5198,8187 L 5198,8037"
     id="path28" /><path
     fill="none"
     stroke="rgb(179,179,179)"
     stroke-linejoin="round"
     d="M 8533,8187 L 8533,8037"
     id="path30" /><path
     fill="none"
     stroke="rgb(179,179,179)"
     stroke-linejoin="round"
     d="M 8533,8187 L 8533,8037"
     id="path32" /><path
     fill="none"
     stroke="rgb(179,179,179)"
     stroke-linejoin="round"
     d="M 11869,8187 L 11869,8037"
     id="path34" /><path
     fill="none"
     stroke="rgb(179,179,179)"
     stroke-linejoin="round"
     d="M 11869,8187 L 11869,8037"
     id="path36" /><path
     fill="none"
     stroke="rgb(179,179,179)"
     stroke-linejoin="round"
     d="M 15206,8187 L 15206,8037"
     id="path38" /><path
     fill="none"
     stroke="rgb(179,179,179)"
     stroke-linejoin="round"
     d="M 15206,8187 L 15206,8037"
     id="path40" /><path
     fill="none"
     stroke="rgb(179,179,179)"
     stroke-linejoin="round"
     d="M 1862,8037 L 15206,8037"
     id="path42" /><path
     fill="none"
     stroke="rgb(179,179,179)"
     stroke-linejoin="round"
     d="M 1712,8037 L 1862,8037"
     id="path44" /><path
     fill="none"
     stroke="rgb(179,179,179)"
     stroke-linejoin="round"
     d="M 1712,8037 L 1862,8037"
     id="path46" /><path
     fill="none"
     stroke="rgb(179,179,179)"
     stroke-linejoin="round"
     d="M 1712,6762 L 1862,6762"
     id="path48" /><path
     fill="none"
     stroke="rgb(179,179,179)"
     stroke-linejoin="round"
     d="M 1712,6762 L 1862,6762"
     id="path50" /><path
     fill="none"
     stroke="rgb(179,179,179)"
     stroke-linejoin="round"
     d="M 1712,5485 L 1862,5485"
     id="path52" /><path
     fill="none"
     stroke="rgb(179,179,179)"
     stroke-linejoin="round"
     d="M 1712,5485 L 1862,5485"
     id="path54" /><path
     fill="none"
     stroke="rgb(179,179,179)"
     stroke-linejoin="round"
     d="M 1712,4209 L 1862,4209"
     id="path56" /><path
     fill="none"
     stroke="rgb(179,179,179)"
     stroke-linejoin="round"
     d="M 1712,4209 L 1862,4209"
     id="path58" /><path
     fill="none"
     stroke="rgb(179,179,179)"
     stroke-linejoin="round"
     d="M 1712,2932 L 1862,2932"
     id="path60" /><path
     fill="none"
     stroke="rgb(179,179,179)"
     stroke-linejoin="round"
     d="M 1712,2932 L 1862,2932"
     id="path62" /><path
     fill="none"
     stroke="rgb(179,179,179)"
     stroke-linejoin="round"
     d="M 1712,1657 L 1862,1657"
     id="path64" /><path
     fill="none"
     stroke="rgb(179,179,179)"
     stroke-linejoin="round"
     d="M 1712,1657 L 1862,1657"
     id="path66" /><path
     fill="none"
     stroke="rgb(179,179,179)"
     stroke-linejoin="round"
     d="M 1712,380 L 1862,380"
     id="path68" /><path
     fill="none"
     stroke="rgb(179,179,179)"
     stroke-linejoin="round"
     d="M 1712,380 L 1862,380"
     id="path70" /><path
     fill="none"
     stroke="rgb(179,179,179)"
     stroke-linejoin="round"
     d="M 1862,8037 L 1862,380"
     id="path72" /><path
     fill="none"
     stroke="rgb(0,153,153)"
     stroke-width="80"
     stroke-linejoin="round"
     d="M 1862,7611 L 2028,7613 2195,7615 2362,7616 2529,7616 2696,7615 2862,7613 3029,7608 3196,7601 3363,7592 3530,7580 3696,7564 3863,7545 4030,7522 4197,7495 4364,7464 4531,7427 4697,7386 4864,7339 5031,7286 5198,7227 5365,7162 5531,7091 5698,7014 5865,6932 6032,6845 6199,6754 6365,6658 6532,6558 6699,6455 6866,6349 7033,6240 7200,6129 7366,6016 7533,5901 7700,5786 7866,5669 8033,5553 8199,5436 8366,5319 8533,5204 8700,5089 8867,4975 9033,4863 9200,4752 9367,4641 9534,4532 9701,4424 9868,4317 10034,4212 10201,4107 10368,4003 10535,3901 10702,3800 10868,3699 11035,3600 11202,3502 11369,3405 11536,3309 11702,3214 11869,3120 12036,3027 12203,2936 12370,2845 12537,2755 12703,2666 12870,2578 13037,2491 13204,2404 13371,2319 13537,2234 13704,2149 13871,2064 14038,1980 14205,1897 14371,1813 14538,1730 14705,1648 14872,1565 15039,1483 15206,1400"
     id="path74" /><path
     fill="rgb(0,153,153)"
     stroke="none"
     d="M 1737,7486 L 1737,7736 1987,7736 1987,7486 1737,7486 Z"
     id="path76" /><path
     fill="none"
     stroke="rgb(0,153,153)"
     stroke-linejoin="round"
     d="M 1737,7486 L 1737,7736 1987,7736 1987,7486 1737,7486 Z"
     id="path78" /><path
     fill="rgb(0,153,153)"
     stroke="none"
     d="M 5073,7102 L 5073,7352 5323,7352 5323,7102 5073,7102 Z"
     id="path80" /><path
     fill="none"
     stroke="rgb(0,153,153)"
     stroke-linejoin="round"
     d="M 5073,7102 L 5073,7352 5323,7352 5323,7102 5073,7102 Z"
     id="path82" /><path
     fill="rgb(0,153,153)"
     stroke="none"
     d="M 8408,5079 L 8408,5329 8658,5329 8658,5079 8408,5079 Z"
     id="path84" /><path
     fill="none"
     stroke="rgb(0,153,153)"
     stroke-linejoin="round"
     d="M 8408,5079 L 8408,5329 8658,5329 8658,5079 8408,5079 Z"
     id="path86" /><path
     fill="rgb(0,153,153)"
     stroke="none"
     d="M 11744,2995 L 11744,3245 11994,3245 11994,2995 11744,2995 Z"
     id="path88" /><path
     fill="none"
     stroke="rgb(0,153,153)"
     stroke-linejoin="round"
     d="M 11744,2995 L 11744,3245 11994,3245 11994,2995 11744,2995 Z"
     id="path90" /><path
     fill="rgb(0,153,153)"
     stroke="none"
     d="M 15081,1275 L 15081,1525 15331,1525 15331,1275 15081,1275 Z"
     id="path92" /><path
     fill="none"
     stroke="rgb(0,153,153)"
     stroke-linejoin="round"
     d="M 15081,1275 L 15081,1525 15331,1525 15331,1275 15081,1275 Z"
     id="path94" /><text
     class="TextShape"
     id="text96"><tspan
       class="TextParagraph"
       font-family="Liberation Sans, sans-serif"
       font-size="353px"
       font-weight="400"
       id="tspan98"><tspan
         class="TextPosition"
         x="1677"
         y="8606"
         id="tspan100"><tspan
           fill="rgb(0,0,0)"
           stroke="none"
           id="tspan102">20</tspan></tspan></tspan></text>
<text
     class="TextShape"
     id="text104"><tspan
       class="TextParagraph"
       font-family="Liberation Sans, sans-serif"
       font-size="353px"
       font-weight="400"
       id="tspan106"><tspan
         class="TextPosition"
         x="5013"
         y="8606"
         id="tspan108"><tspan
           fill="rgb(0,0,0)"
           stroke="none"
           id="tspan110">25</tspan></tspan></tspan></text>
<text
     class="TextShape"
     id="text112"><tspan
       class="TextParagraph"
       font-family="Liberation Sans, sans-serif"
       font-size="353px"
       font-weight="400"
       id="tspan114"><tspan
         class="TextPosition"
         x="8349"
         y="8606"
         id="tspan116"><tspan
           fill="rgb(0,0,0)"
           stroke="none"
           id="tspan118">30</tspan></tspan></tspan></text>
<text
     class="TextShape"
     id="text120"><tspan
       class="TextParagraph"
       font-family="Liberation Sans, sans-serif"
       font-size="353px"
       font-weight="400"
       id="tspan122"><tspan
         class="TextPosition"
         x="11685"
         y="8606"
         id="tspan124"><tspan
           fill="rgb(0,0,0)"
           stroke="none"
           id="tspan126">35</tspan></tspan></tspan></text>
<text
     class="TextShape"
     id="text128"><tspan
       class="TextParagraph"
       font-family="Liberation Sans, sans-serif"
       font-size="353px"
       font-weight="400"
       id="tspan130"><tspan
         class="TextPosition"
         x="15022"
         y="8606"
         id="tspan132"><tspan
           fill="rgb(0,0,0)"
           stroke="none"
           id="tspan134">40</tspan></tspan></tspan></text>
<text
     class="TextShape"
     id="text136"><tspan
       class="TextParagraph"
       font-family="Liberation Sans, sans-serif"
       font-size="353px"
       font-weight="400"
       id="tspan138"><tspan
         class="TextPosition"
         x="924"
         y="8158"
         id="tspan140"><tspan
           fill="rgb(0,0,0)"
           stroke="none"
           id="tspan142">40%</tspan></tspan></tspan></text>
<text
     class="TextShape"
     id="text144"><tspan
       class="TextParagraph"
       font-family="Liberation Sans, sans-serif"
       font-size="353px"
       font-weight="400"
       id="tspan146"><tspan
         class="TextPosition"
         x="924"
         y="6882"
         id="tspan148"><tspan
           fill="rgb(0,0,0)"
           stroke="none"
           id="tspan150">50%</tspan></tspan></tspan></text>
<text
     class="TextShape"
     id="text152"><tspan
       class="TextParagraph"
       font-family="Liberation Sans, sans-serif"
       font-size="353px"
       font-weight="400"
       id="tspan154"><tspan
         class="TextPosition"
         x="924"
         y="5605"
         id="tspan156"><tspan
           fill="rgb(0,0,0)"
           stroke="none"
           id="tspan158">60%</tspan></tspan></tspan></text>
<text
     class="TextShape"
     id="text160"><tspan
       class="TextParagraph"
       font-family="Liberation Sans, sans-serif"
       font-size="353px"
       font-weight="400"
       id="tspan162"><tspan
         class="TextPosition"
         x="924"
         y="4330"
         id="tspan164"><tspan
           fill="rgb(0,0,0)"
           stroke="none"
           id="tspan166">70%</tspan></tspan></tspan></text>
<text
     class="TextShape"
     id="text168"><tspan
       class="TextParagraph"
       font-family="Liberation Sans, sans-serif"
       font-size="353px"
       font-weight="400"
       id="tspan170"><tspan
         class="TextPosition"
         x="924"
         y="3053"
         id="tspan172"><tspan
           fill="rgb(0,0,0)"
           stroke="none"
           id="tspan174">80%</tspan></tspan></tspan></text>
<text
     class="TextShape"
     id="text176"><tspan
       class="TextParagraph"
       font-family="Liberation Sans, sans-serif"
       font-size="353px"
       font-weight="400"
       id="tspan178"><tspan
         class="TextPosition"
         x="924"
         y="1777"
         id="tspan180"><tspan
           fill="rgb(0,0,0)"
           stroke="none"
           id="tspan182">90%</tspan></tspan></tspan></text>
<text
     class="TextShape"
     id="text184"><tspan
       class="TextParagraph"
       font-family="Liberation Sans, sans-serif"
       font-size="353px"
       font-weight="400"
       id="tspan186"><tspan
         class="TextPosition"
         x="739"
         y="500"
         id="tspan188"><tspan
           fill="rgb(0,0,0)"
           stroke="none"
           id="tspan190">100%</tspan></tspan></tspan></text>
<text
     class="TextShape"
     id="text192"><tspan
       class="TextParagraph"
       font-family="Liberation Sans, sans-serif"
       font-size="353px"
       font-weight="400"
       id="tspan194"><tspan
         class="TextPosition"
         x="1518"
         y="7307"
         id="tspan196"><tspan
           fill="rgb(0,0,0)"
           stroke="none"
           id="tspan198">43%</tspan></tspan></tspan></text>
<text
     class="TextShape"
     id="text200"><tspan
       class="TextParagraph"
       font-family="Liberation Sans, sans-serif"
       font-size="353px"
       font-weight="400"
       id="tspan202"><tspan
         class="TextPosition"
         x="4854"
         y="6924"
         id="tspan204"><tspan
           fill="rgb(0,0,0)"
           stroke="none"
           id="tspan206">46%</tspan></tspan></tspan></text>
<text
     class="TextShape"
     id="text208"><tspan
       class="TextParagraph"
       font-family="Liberation Sans, sans-serif"
       font-size="353px"
       font-weight="400"
       id="tspan210"><tspan
         class="TextPosition"
         x="8190"
         y="4900"
         id="tspan212"><tspan
           fill="rgb(0,0,0)"
           stroke="none"
           id="tspan214">62%</tspan></tspan></tspan></text>
<text
     class="TextShape"
     id="text216"><tspan
       class="TextParagraph"
       font-family="Liberation Sans, sans-serif"
       font-size="353px"
       font-weight="400"
       id="tspan218"><tspan
         class="TextPosition"
         x="11526"
         y="2816"
         id="tspan220"><tspan
           fill="rgb(0,0,0)"
           stroke="none"
           id="tspan222">79%</tspan></tspan></tspan></text>
<text
     class="TextShape"
     id="text224"><tspan
       class="TextParagraph"
       font-family="Liberation Sans, sans-serif"
       font-size="353px"
       font-weight="400"
       id="tspan226"><tspan
         class="TextPosition"
         x="14863"
         y="1096"
         id="tspan228"><tspan
           fill="rgb(0,0,0)"
           stroke="none"
           id="tspan230">92%</tspan></tspan></tspan></text>
<text
     class="TextShape"
     id="text232"><tspan
       class="TextParagraph"
       font-family="Liberation Sans, sans-serif"
       font-size="388px"
       font-weight="400"
       id="tspan234"><tspan
         class="TextPosition"
         x="6531"
         y="9095"
         id="tspan236"><tspan
           fill="rgb(0,0,0)"
           stroke="none"
           id="tspan238">Age of the mother</tspan></tspan></tspan></text>
<text
     class="TextShape"
     transform="translate(497,6325) rotate(-90) translate(-497,-6325)"
     id="text240"><tspan
       class="TextParagraph"
       font-family="Liberation Sans, sans-serif"
       font-size="423px"
       font-weight="400"
       id="tspan242"><tspan
         class="TextPosition"
         x="497"
         y="6325"
         id="tspan244"><tspan
           fill="rgb(0,0,0)"
           stroke="none"
           id="tspan246">Reliability of the test</tspan></tspan></tspan></text>
</svg>